<?xml version="1.0" ?><svg id="Layer_1" style="enable-background:new 0 0 65 65;" version="1.1" viewBox="0 0 65 65" xml:space="preserve" xmlns="http://www.w3.org/2000/svg" xmlns:xlink="http://www.w3.org/1999/xlink"><style type="text/css">
	.st0{fill:#1C1F20;}
</style><g><path class="st0" d="M61.5,18.2c0.4,0,0.8-0.3,0.8-0.8v-11c0-0.4-0.3-0.8-0.8-0.8s-0.8,0.3-0.8,0.8v11   C60.8,17.9,61.1,18.2,61.5,18.2z"/><path class="st0" d="M61.5,3.2c0.4,0,0.8-0.3,0.8-0.8v-1c0-0.4-0.3-0.8-0.8-0.8s-0.8,0.3-0.8,0.8v1C60.8,2.9,61.1,3.2,61.5,3.2z"/><path class="st0" d="M56.5,62.7h-1c-0.4,0-0.8,0.3-0.8,0.8s0.3,0.8,0.8,0.8h1c0.4,0,0.8-0.3,0.8-0.8S56.9,62.7,56.5,62.7z"/><path class="st0" d="M9.5,4.2h1.3v1.3c0,0.4,0.3,0.8,0.8,0.8s0.8-0.3,0.8-0.8V4.2h1.3c0.4,0,0.8-0.3,0.8-0.8s-0.3-0.8-0.8-0.8h-1.3   V1.5c0-0.4-0.3-0.8-0.8-0.8s-0.8,0.3-0.8,0.8v1.3H9.5c-0.4,0-0.8,0.3-0.8,0.8S9.1,4.2,9.5,4.2z"/><path class="st0" d="M22.5,55.7h-1.3v-1.3c0-0.4-0.3-0.8-0.8-0.8s-0.8,0.3-0.8,0.8v1.3h-1.3c-0.4,0-0.8,0.3-0.8,0.8   s0.3,0.8,0.8,0.8h1.3v1.3c0,0.4,0.3,0.8,0.8,0.8s0.8-0.3,0.8-0.8v-1.3h1.3c0.4,0,0.8-0.3,0.8-0.8S22.9,55.7,22.5,55.7z"/><path class="st0" d="M28.5,13.2c0.4,0,0.8-0.3,0.8-0.8s-0.3-0.8-0.8-0.8c-6.6,0-12.1,5-12.7,11.6c0,0.4,0.3,0.8,0.7,0.8   c0,0,0,0,0.1,0c0.4,0,0.7-0.3,0.7-0.7C17.8,17.7,22.6,13.2,28.5,13.2z"/><path class="st0" d="M51.5,62.7H39.2V44.3h5.3c0.3,0,0.6-0.2,0.7-0.5c0.1-0.3,0.1-0.6-0.2-0.8L33,31c-0.3-0.3-0.8-0.3-1.1,0L20,43   c-0.2,0.2-0.3,0.5-0.2,0.8c0.1,0.3,0.4,0.5,0.7,0.5h5.3v19.3c0,0.4,0.3,0.8,0.8,0.8s0.8-0.3,0.8-0.8v-20c0-0.4-0.3-0.8-0.8-0.8   h-4.2l10.2-10.2l10.2,10.2h-4.2c-0.4,0-0.8,0.3-0.8,0.8v20c0,0.3,0.1,0.5,0.4,0.6c0.1,0.1,0.3,0.1,0.4,0.1h13   c0.4,0,0.8-0.3,0.8-0.8S51.9,62.7,51.5,62.7z"/><path class="st0" d="M57.7,29.5c0.4-1,0.5-2,0.5-3c0-4.8-3.9-8.8-8.8-8.8c-1.8,0-3.6,0.6-5.1,1.6c-2.2-6.9-8.6-11.6-15.9-11.6   c-8.6,0-15.6,6.3-16.6,14.8c-6,2-10.1,7.7-10.1,14c0,8.1,6.6,14.8,14.8,14.8h6c0.4,0,0.8-0.3,0.8-0.8s-0.3-0.8-0.8-0.8h-6   c-7.3,0-13.3-5.9-13.3-13.3c0-5.8,3.9-11.1,9.5-12.7c0.3-0.1,0.5-0.3,0.5-0.7C14,15.2,20.5,9.2,28.5,9.2c7,0,13.1,4.8,14.8,11.6   c0.1,0.3,0.3,0.5,0.5,0.5c0.3,0.1,0.5,0,0.7-0.2c1.4-1.3,3.1-2,5-2c4,0,7.3,3.3,7.3,7.3c0,1-0.2,2.1-0.7,3c-0.2,0.4,0,0.8,0.3,1   c3.3,1.8,5.3,5.2,5.3,9c0,5.7-4.6,10.3-10.3,10.3h-9c-0.4,0-0.8,0.3-0.8,0.8s0.3,0.8,0.8,0.8h9c6.5,0,11.8-5.3,11.8-11.8   C63.3,35.4,61.1,31.7,57.7,29.5z"/></g></svg>