<?xml version="1.0" ?><svg id="Layer_1" style="enable-background:new 0 0 65 65;" version="1.1" viewBox="0 0 65 65" xml:space="preserve" xmlns="http://www.w3.org/2000/svg" xmlns:xlink="http://www.w3.org/1999/xlink"><style type="text/css">
	.st0{fill:#1C1F20;}
</style><g><path class="st0" d="M1.5,54.8c-0.4,0-0.8,0.3-0.8,0.8v8c0,0.4,0.3,0.8,0.8,0.8s0.8-0.3,0.8-0.8v-8C2.2,55.1,1.9,54.8,1.5,54.8z"/><path class="st0" d="M1.5,48.8c-0.4,0-0.8,0.3-0.8,0.8v2c0,0.4,0.3,0.8,0.8,0.8s0.8-0.3,0.8-0.8v-2C2.2,49.1,1.9,48.8,1.5,48.8z"/><path class="st0" d="M39.5,2.3h12c0.4,0,0.8-0.3,0.8-0.8s-0.3-0.8-0.8-0.8h-12c-0.4,0-0.8,0.3-0.8,0.8S39.1,2.3,39.5,2.3z"/><path class="st0" d="M55.5,2.3h2c0.4,0,0.8-0.3,0.8-0.8s-0.3-0.8-0.8-0.8h-2c-0.4,0-0.8,0.3-0.8,0.8S55.1,2.3,55.5,2.3z"/><path class="st0" d="M59.5,21.8c-0.4,0-0.8,0.3-0.8,0.8s0.3,0.8,0.8,0.8h1.3v1.3c0,0.4,0.3,0.8,0.8,0.8s0.8-0.3,0.8-0.8v-1.3h1.3   c0.4,0,0.8-0.3,0.8-0.8s-0.3-0.8-0.8-0.8h-1.3v-1.3c0-0.4-0.3-0.8-0.8-0.8s-0.8,0.3-0.8,0.8v1.3H59.5z"/><path class="st0" d="M13.5,4.3h1.3v1.3c0,0.4,0.3,0.8,0.8,0.8s0.8-0.3,0.8-0.8V4.3h1.3c0.4,0,0.8-0.3,0.8-0.8s-0.3-0.8-0.8-0.8   h-1.3V1.5c0-0.4-0.3-0.8-0.8-0.8s-0.8,0.3-0.8,0.8v1.3h-1.3c-0.4,0-0.8,0.3-0.8,0.8S13.1,4.3,13.5,4.3z"/><path class="st0" d="M55.7,21.5l4.2-4.2c1.1-1.1,1.1-2.8,0-3.9l-4.2-4.2c-0.3-0.3-0.6-0.5-0.9-0.6c-0.3-0.1-0.7-0.2-1-0.2   c-0.7,0-1.4,0.3-1.9,0.8l-4.2,4.2L10.8,50.1c-0.1,0.1-0.1,0.2-0.2,0.3c0,0,0,0,0,0L7,61c-0.1,0.3,0,0.6,0.2,0.8   C7.4,61.9,7.6,62,7.8,62c0.1,0,0.2,0,0.2,0l10.6-3.5c0,0,0,0,0,0c0.1,0,0.2-0.1,0.3-0.2L55.7,21.5z M18.4,56.7l-2.5-2.5l35.7-35.7   l2.5,2.5L18.4,56.7z M11.6,52l2.7,2.7l2.7,2.7l-2.7,0.9l-3.6-3.6L11.6,52z M52.8,10.2c0.5-0.5,1.3-0.5,1.8,0l4.2,4.2   c0.5,0.5,0.5,1.3,0,1.8l-3.7,3.7l-3-3c0,0,0,0,0,0s0,0,0,0l-3-3L52.8,10.2z M48.1,14.9l2.5,2.5L14.8,53.1l-2.5-2.5L48.1,14.9z    M10.2,56.3l2.5,2.5l-3.8,1.3L10.2,56.3z"/><path class="st0" d="M63.5,28.7H52.2c-0.4,0-0.8,0.3-0.8,0.8s0.3,0.8,0.8,0.8h11.3c0.4,0,0.8-0.3,0.8-0.8S63.9,28.7,63.5,28.7z"/><path class="st0" d="M1.5,40.2h15.3c0.4,0,0.8-0.3,0.8-0.8s-0.3-0.8-0.8-0.8H1.5c-0.4,0-0.8,0.3-0.8,0.8S1.1,40.2,1.5,40.2z"/><path class="st0" d="M63.5,38.7H42.2c-0.4,0-0.8,0.3-0.8,0.8s0.3,0.8,0.8,0.8h21.3c0.4,0,0.8-0.3,0.8-0.8S63.9,38.7,63.5,38.7z"/><path class="st0" d="M63.5,48.7H32.2c-0.4,0-0.8,0.3-0.8,0.8s0.3,0.8,0.8,0.8h31.3c0.4,0,0.8-0.3,0.8-0.8S63.9,48.7,63.5,48.7z"/><path class="st0" d="M19.5,10.2h27.3c0.4,0,0.8-0.3,0.8-0.8s-0.3-0.8-0.8-0.8H19.5c-0.4,0-0.8,0.3-0.8,0.8S19.1,10.2,19.5,10.2z"/><path class="st0" d="M1.5,10.2h10c0.4,0,0.8-0.3,0.8-0.8s-0.3-0.8-0.8-0.8h-10c-0.4,0-0.8,0.3-0.8,0.8S1.1,10.2,1.5,10.2z"/><path class="st0" d="M1.5,20.2h21c0.4,0,0.8-0.3,0.8-0.8s-0.3-0.8-0.8-0.8h-21c-0.4,0-0.8,0.3-0.8,0.8S1.1,20.2,1.5,20.2z"/><path class="st0" d="M28.5,18.7c-0.4,0-0.8,0.3-0.8,0.8s0.3,0.8,0.8,0.8h8.3c0.4,0,0.8-0.3,0.8-0.8s-0.3-0.8-0.8-0.8H28.5z"/><path class="st0" d="M1.5,30.2h25.3c0.4,0,0.8-0.3,0.8-0.8s-0.3-0.8-0.8-0.8H1.5c-0.4,0-0.8,0.3-0.8,0.8S1.1,30.2,1.5,30.2z"/><path class="st0" d="M46.5,58.7H22.2c-0.4,0-0.8,0.3-0.8,0.8s0.3,0.8,0.8,0.8h24.3c0.4,0,0.8-0.3,0.8-0.8S46.9,58.7,46.5,58.7z"/><path class="st0" d="M63.5,58.7h-9c-0.4,0-0.8,0.3-0.8,0.8s0.3,0.8,0.8,0.8h9c0.4,0,0.8-0.3,0.8-0.8S63.9,58.7,63.5,58.7z"/></g></svg>